<?xml version="1.0" standalone="no"?>
<!DOCTYPE svg PUBLIC "-//W3C//DTD SVG 20010904//EN"
 "http://www.w3.org/TR/2001/REC-SVG-20010904/DTD/svg10.dtd">
<svg version="1.0" xmlns="http://www.w3.org/2000/svg"
 width="256.000000pt" height="256.000000pt" viewBox="0 0 256.000000 256.000000"
 preserveAspectRatio="xMidYMid meet">
<metadata>
Created by potrace 1.14, written by Peter Selinger 2001-2017
</metadata>
<g transform="translate(0.000000,256.000000) scale(0.100000,-0.100000)"
fill="#000000" stroke="none">
<path d="M1140 2554 c-561 -72 -997 -471 -1116 -1024 -26 -119 -26 -381 0
-500 111 -513 492 -895 1006 -1006 64 -14 127 -18 255 -18 172 0 226 7 360 46
457 133 808 526 897 1003 20 106 16 371 -6 475 -109 506 -483 886 -986 1001
-83 19 -331 33 -410 23z m543 -692 l218 -218 -3 -474 c-3 -528 -2 -518 -71
-560 -31 -19 -54 -20 -515 -20 -533 0 -523 -1 -562 63 -19 31 -20 55 -20 682
0 627 1 651 20 679 41 63 52 65 400 66 l315 0 218 -218z"/>
</g>
</svg>
